# xmcd
#
# Track frame offsets: 
#        150
#        19408
#        35770
#        50267
#        66599
#        84555
#        100020
#        116776
#        130185
#        146246
#        156661
#        172893
#        187588
#        204177
#        223403
#        242185
#        260537
#        279069
#
# Disc length: 3981 seconds
#
# Revision: 0
# Processed by: cddbd v1.5.2PL0 Copyright (c) Steve Scherf et al.
# Submitted via: ExactAudioCopy v1.3
#
DISCID=0d0f8b12
DTITLE=Various Artist - Latest and Greatest Hip-Hop
DYEAR=2016
DGENRE=Hip-Hop
TTITLE0=N.W.A. - Straight Outta Compton
TTITLE1=DMX - X Gon' Give It To Ya
TTITLE2=Busta Rhymes - Put Your Hands Where My Eyes Could See
TTITLE3=Terror Squad - Lean Back
TTITLE4=Joe Budden - Pump It Up
TTITLE5=Cam'ron feat. Juelz Santana - Oh boy
TTITLE6=Fabolous - Can't Let You Go - Fabolous
TTITLE7=Foxy Brown feat. Jay-Z - I'll be
TTITLE8=Ludacris feat. Shawnna - Stand Up
TTITLE9=Method Man feat. Redman - Da Rockwilder
TTITLE10=Gang Starr - Full Clip
TTITLE11=De La Soul - Verbal Clap
TTITLE12=Redman feat. DJ Kool - Let's get dirty (I can't get in da clu
TTITLE12=b)
TTITLE13=The Nextmen feat. Dynamite MC - Round of applause
TTITLE14=Warren G feat. Nate Dogg - Regulate
TTITLE15=Luniz - I got 5 on it
TTITLE16=Angie Martinez  feat. Lil' Mo and Sacario - If I could go!
TTITLE17=Ice Cube - It was a good day
EXTD=
EXTT0=
EXTT1=
EXTT2=
EXTT3=
EXTT4=
EXTT5=
EXTT6=
EXTT7=
EXTT8=
EXTT9=
EXTT10=
EXTT11=
EXTT12=
EXTT13=
EXTT14=
EXTT15=
EXTT16=
EXTT17=
PLAYORDER=
